<svg id="Layer_1" data-name="Layer 1" xmlns="http://www.w3.org/2000/svg" xmlns:xlink="http://www.w3.org/1999/xlink" viewBox="0 0 686.41 179.96"><defs><style>.cls-1{opacity:0.85;}.cls-2{fill:#fff;stroke:#fff;stroke-miterlimit:10;stroke-width:0.25px;}.cls-3{fill:url(#linear-gradient);}.cls-4{fill:url(#linear-gradient-2);}.cls-5{fill:url(#linear-gradient-3);}.cls-6{fill:url(#linear-gradient-4);}.cls-7{fill:url(#linear-gradient-5);}.cls-8{fill:url(#linear-gradient-6);}.cls-9{fill:url(#linear-gradient-7);}</style><linearGradient id="linear-gradient" x1="51.21" y1="28.28" x2="51.21" y2="129.87" gradientUnits="userSpaceOnUse"><stop offset="0" stop-color="#8f4db5"/><stop offset="1" stop-color="#ce5bb8"/></linearGradient><linearGradient id="linear-gradient-2" x1="152.46" y1="30.12" x2="152.46" y2="128.09" xlink:href="#linear-gradient"/><linearGradient id="linear-gradient-3" x1="220.74" y1="30.12" x2="220.74" y2="128.09" xlink:href="#linear-gradient"/><linearGradient id="linear-gradient-4" x1="298.41" y1="23.96" x2="298.41" y2="128.09" xlink:href="#linear-gradient"/><linearGradient id="linear-gradient-5" x1="401.4" y1="23.45" x2="401.4" y2="134.06" xlink:href="#linear-gradient"/><linearGradient id="linear-gradient-6" x1="504.52" y1="30.12" x2="504.52" y2="128.09" xlink:href="#linear-gradient"/><linearGradient id="linear-gradient-7" x1="256.66" y1="130.11" x2="367.4" y2="240.14" gradientTransform="matrix(1.42, 0, 0, -1.42, 156.91, 328.77)" gradientUnits="userSpaceOnUse"><stop offset="0" stop-color="#f6b"/><stop offset="1" stop-color="#0c30ad"/></linearGradient></defs><title>orlando</title><g class="cls-1"><path class="cls-2" d="M227,162v16.77H224V162h-4.49v-2.77h11.92V162Z"/><path class="cls-2" d="M244.82,166.85h8.43v-7.64h2.95v19.54h-2.95v-9.12h-8.43v9.12h-2.95V159.21h2.95Z"/><path class="cls-2" d="M279.44,162H271.6v4.7h7.61v2.77H271.6V176h7.84v2.77H268.66V159.21h10.78Z"/><path class="cls-2" d="M306.18,178.75l4.11-21L317,172.93,324,157.74l3.7,21h-3L322.74,167,317,179.65l-5.62-12.71-2.1,11.81Z"/><path class="cls-2" d="M342.51,159.21V171a6.44,6.44,0,0,0,.82,3.68,4.4,4.4,0,0,0,6.93,0,6.44,6.44,0,0,0,.82-3.68V159.21H354v12.58a7,7,0,0,1-1.93,5.09,7.23,7.23,0,0,1-12.54-5.09V159.21Z"/><path class="cls-2" d="M377.54,162.12l-2.4,1.42a4.09,4.09,0,0,0-1.27-1.52,3.37,3.37,0,0,0-3.67.29,2.15,2.15,0,0,0-.81,1.72c0,.95.7,1.72,2.12,2.31l1.95.79a8.29,8.29,0,0,1,3.48,2.35,5.26,5.26,0,0,1,1.1,3.4,6,6,0,0,1-1.79,4.45,6.2,6.2,0,0,1-4.5,1.78,6,6,0,0,1-4.2-1.51,6.92,6.92,0,0,1-2-4.24l3-.66a5,5,0,0,0,.71,2.38,3.36,3.36,0,0,0,5,.34,3.2,3.2,0,0,0,.91-2.34,3.11,3.11,0,0,0-.16-1,2.83,2.83,0,0,0-.49-.88,4.33,4.33,0,0,0-.87-.74,7.47,7.47,0,0,0-1.27-.67L370.4,169c-2.68-1.13-4-2.79-4-5a4.73,4.73,0,0,1,1.68-3.69,6.11,6.11,0,0,1,4.19-1.49A5.87,5.87,0,0,1,377.54,162.12Z"/><path class="cls-2" d="M392.32,159.21v19.54h-2.95V159.21Z"/><path class="cls-2" d="M419.24,160.26v3.49a8.23,8.23,0,0,0-5.29-2.14,6.77,6.77,0,0,0-5.08,2.17A7.3,7.3,0,0,0,406.8,169a7.14,7.14,0,0,0,2.07,5.19,6.87,6.87,0,0,0,5.09,2.12,6.15,6.15,0,0,0,2.64-.51,7.83,7.83,0,0,0,1.26-.68,15.59,15.59,0,0,0,1.38-1v3.56a10.7,10.7,0,0,1-5.32,1.43,9.81,9.81,0,0,1-7.15-2.93,9.66,9.66,0,0,1-2.95-7.11,10,10,0,0,1,2.47-6.66,9.8,9.8,0,0,1,7.86-3.58A10,10,0,0,1,419.24,160.26Z"/><path class="cls-2" d="M442.68,174h-8.36l-2.18,4.75H429L438.63,158,448,178.75h-3.23Zm-1.2-2.77-2.9-6.64-3,6.64Z"/><path class="cls-2" d="M461.13,159.21V176h5.74v2.77h-8.69V159.21Z"/></g><path class="cls-3" d="M0,78.66Q0,58,15.17,43.12A49.92,49.92,0,0,1,51.46,28.28a49,49,0,0,1,35.92,15,49,49,0,0,1,15,36,48.19,48.19,0,0,1-15.1,35.86A50.58,50.58,0,0,1,50.7,129.87q-19,0-34.07-13.13Q0,102.21,0,78.66Zm14.91.19q0,16.25,10.92,26.72T50.89,116a35.29,35.29,0,0,0,26-10.66A36.09,36.09,0,0,0,87.51,79.1q0-15.66-10.47-26.27A34.61,34.61,0,0,0,51.27,42.17,34.92,34.92,0,0,0,25.45,52.83Q14.91,63.38,14.91,78.85Z"/><path class="cls-4" d="M153.89,86.34l30.33,41.75H166.13l-28-40.1h-2.67v40.1H120.7v-98H138q19.42,0,28,7.29,9.52,8.13,9.52,21.45a27.83,27.83,0,0,1-6,17.9A26.59,26.59,0,0,1,153.89,86.34ZM135.48,75.11h4.7q21,0,21-16.06,0-15-20.43-15h-5.27Z"/><path class="cls-5" d="M213.73,30.12V114.2h28.81v13.89h-43.6v-98Z"/><path class="cls-6" d="M319.57,104.3H277.63l-10.92,23.79H250.79L299.27,24,346,128.09H329.85Zm-6-13.9L299,57.08,283.78,90.4Z"/><path class="cls-7" d="M358.28,128.09V23.45l71.46,74.76V30.12h14.78V134.06L373.07,59.5v68.59Z"/><path class="cls-8" d="M466.64,128.09v-98H487.2q14.78,0,23.35,2.91a43.8,43.8,0,0,1,16.69,9.71q15.16,13.84,15.17,36.36T526.6,115.66A46.17,46.17,0,0,1,510,125.37q-8.13,2.73-23,2.72Zm14.78-13.89h6.67a55.44,55.44,0,0,0,16.56-2.1,33.58,33.58,0,0,0,11.93-7q10.9-10,10.91-26T516.7,53Q507,44,488.09,44h-6.67Z"/><path class="cls-9" d="M532.43,0V34.22h13.68V24l10.27,10.27L546.11,44.48l10.28,10.26,10.25-10.26,3.43,3.38a50.13,50.13,0,0,0,31.67,80.71l0,17.72H582v15.39h19.68v18h15.4v-18H636.8V146.29H617.12V128.54a50.14,50.14,0,0,0,31.71-80.66L672.73,24V46.2h13.68V0H640.22V13.68h22.24l-24.19,24.2a50,50,0,0,0-57.68,0l-3.68-3.66L587.17,24,576.91,13.68,566.64,24,556.38,13.68h10.26V0Zm77,42.81a35.93,35.93,0,1,1-35.93,35.93,36,36,0,0,1,35.93-35.93Z"/></svg>